# Blender v2.79 (sub 0) OBJ File: 'bendy_tube.blend'
# www.blender.org
mtllib bendy_tube.mtl
#> a Armature
#> b 0 0.000000 0.000000 0.000000 0.000000 0.000000 0.000000 1.000000 1.000000 Bone_1
#> b 1 0.000000 1.000000 0.000000 0.000000 0.000000 0.000000 1.000000 1.000000 Bone_2
#> b 2 0.000000 2.000000 0.000000 0.000000 0.000000 0.000000 1.000000 1.000000 Bone_3
o Cube
v 0.500000 0.000000 -0.500000
#> vw 1 1 1.000000
v 0.500000 0.000000 0.500000
#> vw 1 1 1.000000
v -0.500000 0.000000 0.500000
#> vw 1 1 1.000000
v -0.500000 0.000000 -0.500000
#> vw 1 1 1.000000
v 0.500000 3.000000 -0.500000
#> vw 1 1 3.000000
v 0.500000 3.000000 0.500000
#> vw 1 1 3.000000
v -0.500000 3.000000 0.500000
#> vw 1 1 3.000000
v -0.500000 3.000000 -0.500000
#> vw 1 1 3.000000
v 0.500000 1.000000 -0.500000
#> vw 0 1 2.000000
#> vw 0 1 1.000000
v 0.500000 2.000000 -0.500000
#> vw 0 1 2.000000
#> vw 0 1 3.000000
v 0.500000 1.000000 0.500000
#> vw 0 1 2.000000
#> vw 0 1 1.000000
v 0.500000 2.000000 0.500000
#> vw 0 1 2.000000
#> vw 0 1 3.000000
v -0.500000 1.000000 0.500000
#> vw 0 1 2.000000
#> vw 0 1 1.000000
v -0.500000 2.000000 0.500000
#> vw 0 1 2.000000
#> vw 0 1 3.000000
v -0.500000 1.000000 -0.500000
#> vw 0 1 2.000000
#> vw 0 1 1.000000
v -0.500000 2.000000 -0.500000
#> vw 0 1 2.000000
#> vw 0 1 3.000000
vn 0.0000 -1.0000 0.0000
vn 0.0000 1.0000 0.0000
vn 1.0000 -0.0000 0.0000
vn -0.0000 -0.0000 1.0000
vn -1.0000 0.0000 -0.0000
vn 0.0000 0.0000 -1.0000
usemtl Material
s off
f 1//1 2//1 3//1 4//1
f 5//2 8//2 7//2 6//2
f 10//3 5//3 6//3 12//3
f 12//4 6//4 7//4 14//4
f 14//5 7//5 8//5 16//5
f 9//6 1//6 4//6 15//6
f 5//6 10//6 16//6 8//6
f 10//6 9//6 15//6 16//6
f 3//5 13//5 15//5 4//5
f 13//5 14//5 16//5 15//5
f 2//4 11//4 13//4 3//4
f 11//4 12//4 14//4 13//4
f 1//3 9//3 11//3 2//3
f 9//3 10//3 12//3 11//3
