# Blender v2.79 (sub 0) OBJ File: 'non_axis_aligned_bones.blend'
# www.blender.org
mtllib non_axis_aligned_bones.mtl
#> a Armature
#> b 0 0.000000 0.000000 0.000000 0.000000 0.000000 0.000000 1.000000 0.250000 Root
#> b 1 0.333333 0.250000 -0.333333 -0.653282 -0.270598 -0.270598 0.653281 1.000000 +z+x
#> b 1 -0.333333 0.250000 -0.333333 -0.653282 0.270598 0.270598 0.653281 1.000000 +z-x
#> b 1 -0.333333 0.250000 0.333333 -0.270598 0.653282 0.653281 0.270598 1.000000 -z-x
#> b 1 0.333333 0.250000 0.333333 -0.270598 -0.653282 -0.653281 0.270598 1.000000 -z+x
o Cube.002
v 0.421722 0.125000 0.244945
#> vw 1 5 1.000000
v 0.244945 0.125000 0.421722
#> vw 1 5 1.000000
v 0.421722 0.375000 0.244945
#> vw 1 5 1.000000
v 0.244945 0.375000 0.421722
#> vw 1 5 1.000000
v 0.952052 0.375000 1.128828
#> vw 1 5 1.000000
v 1.128828 0.375000 0.952052
#> vw 1 5 1.000000
v 0.952052 0.125000 1.128828
#> vw 1 5 1.000000
v 1.128828 0.125000 0.952052
#> vw 1 5 1.000000
v -0.244945 0.125000 0.421722
#> vw 1 4 1.000000
v -0.421722 0.125000 0.244945
#> vw 1 4 1.000000
v -0.244945 0.375000 0.421722
#> vw 1 4 1.000000
v -0.421722 0.375000 0.244945
#> vw 1 4 1.000000
v -1.128828 0.375000 0.952052
#> vw 1 4 1.000000
v -0.952052 0.375000 1.128828
#> vw 1 4 1.000000
v -1.128828 0.125000 0.952052
#> vw 1 4 1.000000
v -0.952052 0.125000 1.128828
#> vw 1 4 1.000000
v -0.421722 0.125000 -0.244945
#> vw 1 3 1.000000
v -0.244945 0.125000 -0.421722
#> vw 1 3 1.000000
v -0.421722 0.375000 -0.244945
#> vw 1 3 1.000000
v -0.244945 0.375000 -0.421722
#> vw 1 3 1.000000
v -0.952052 0.375000 -1.128828
#> vw 1 3 1.000000
v -1.128829 0.375000 -0.952052
#> vw 1 3 1.000000
v -0.952052 0.125000 -1.128828
#> vw 1 3 1.000000
v -1.128829 0.125000 -0.952052
#> vw 1 3 1.000000
v 0.244945 0.125000 -0.421722
#> vw 1 2 1.000000
v 0.421722 0.125000 -0.244945
#> vw 1 2 1.000000
v 0.244945 0.375000 -0.421722
#> vw 1 2 1.000000
v 0.421722 0.375000 -0.244945
#> vw 1 2 1.000000
v 1.128829 0.375000 -0.952052
#> vw 1 2 1.000000
v 0.952052 0.375000 -1.128828
#> vw 1 2 1.000000
v 1.128829 0.125000 -0.952052
#> vw 1 2 1.000000
v 0.952052 0.125000 -1.128828
#> vw 1 2 1.000000
vt 0.484375 0.328125
vt 0.484375 0.078125
vt 0.546875 0.078125
vt 0.546875 0.328125
vt 0.421875 0.328125
vt 0.421875 0.078125
vt 0.484375 0.328125
vt 0.484375 0.078125
vt 0.546875 0.078125
vt 0.546875 0.328125
vt 0.609375 0.078125
vt 0.609375 0.328125
vt 0.671875 0.078125
vt 0.671875 0.328125
vt 0.546875 0.015625
vt 0.484375 0.015625
vt 0.421875 0.328125
vt 0.421875 0.078125
vt 0.609375 0.078125
vt 0.609375 0.328125
vt 0.671875 0.078125
vt 0.671875 0.328125
vt 0.546875 0.015625
vt 0.484375 0.015625
vt 0.203125 0.328125
vt 0.203125 0.078125
vt 0.265625 0.078125
vt 0.265625 0.328125
vt 0.140625 0.328125
vt 0.140625 0.078125
vt 0.328125 0.078125
vt 0.328125 0.328125
vt 0.078125 0.328125
vt 0.078125 0.078125
vt 0.265625 0.015625
vt 0.203125 0.015625
vt 0.203125 0.328125
vt 0.203125 0.078125
vt 0.265625 0.078125
vt 0.265625 0.328125
vt 0.140625 0.328125
vt 0.140625 0.078125
vt 0.328125 0.078125
vt 0.328125 0.328125
vt 0.078125 0.328125
vt 0.078125 0.078125
vt 0.265625 0.015625
vt 0.203125 0.015625
vn 0.0000 1.0000 0.0000
vn -0.7071 0.0000 0.7071
vn 0.7071 0.0000 -0.7071
vn 0.0000 -1.0000 0.0000
vn 0.7071 0.0000 0.7071
vn -0.7071 0.0000 -0.7071
usemtl Material
s off
f 4/1/1 5/2/1 6/3/1 3/4/1
f 2/5/2 7/6/2 5/2/2 4/1/2
f 12/7/1 13/8/1 14/9/1 11/10/1
f 3/4/3 6/3/3 8/11/3 1/12/3
f 1/12/4 8/11/4 7/13/4 2/14/4
f 8/15/5 6/3/5 5/2/5 7/16/5
f 10/17/6 15/18/6 13/8/6 12/7/6
f 11/10/5 14/9/5 16/19/5 9/20/5
f 9/20/4 16/19/4 15/21/4 10/22/4
f 16/23/2 14/9/2 13/8/2 15/24/2
f 20/25/1 21/26/1 22/27/1 19/28/1
f 18/29/3 23/30/3 21/26/3 20/25/3
f 19/28/2 22/27/2 24/31/2 17/32/2
f 17/33/4 24/34/4 23/30/4 18/29/4
f 24/35/6 22/27/6 21/26/6 23/36/6
f 28/37/1 29/38/1 30/39/1 27/40/1
f 26/41/5 31/42/5 29/38/5 28/37/5
f 27/40/6 30/39/6 32/43/6 25/44/6
f 25/45/4 32/46/4 31/42/4 26/41/4
f 32/47/3 30/39/3 29/38/3 31/48/3
o Cube
v 0.500000 0.000000 0.166667
v 0.500000 0.000000 -0.166667
v -0.500000 0.000000 -0.166667
v -0.500000 0.000000 0.166667
v 0.166667 0.000000 -0.500000
v -0.166667 0.000000 -0.500000
v -0.166667 0.000000 0.500000
v 0.166667 0.000000 0.500000
v 0.500000 0.500000 0.166667
v 0.500000 0.500000 -0.166667
v -0.500000 0.500000 -0.166667
v -0.500000 0.500000 0.166667
v -0.166667 0.500000 -0.500000
v 0.166667 0.500000 -0.500000
v -0.166667 0.500000 0.500000
v 0.166667 0.500000 0.500000
vt 0.500000 0.578125
vt 0.421875 0.500000
vt 0.328125 0.500000
vt 0.250000 0.578125
vt 0.250000 0.671875
vt 0.328125 0.750000
vt 0.421875 0.750000
vt 0.500000 0.671875
vt 0.250000 0.578125
vt 0.250000 0.671875
vt 0.328125 0.750000
vt 0.421875 0.750000
vt 0.500000 0.671875
vt 0.500000 0.578125
vt 0.421875 0.500000
vt 0.328125 0.500000
vt 0.578125 0.343750
vt 0.578125 0.468750
vt 0.453125 0.468750
vt 0.453125 0.343750
vt 0.296875 0.343750
vt 0.296875 0.468750
vt 0.171875 0.468750
vt 0.171875 0.343750
vt 0.421875 0.343750
vt 0.421875 0.468750
vt 0.328125 0.468750
vt 0.328125 0.343750
vt 0.421875 0.343750
vt 0.421875 0.468750
vt 0.328125 0.468750
vt 0.328125 0.343750
vt 0.578125 0.343750
vt 0.578125 0.468750
vt 0.453125 0.468750
vt 0.453125 0.343750
vt 0.421875 0.343750
vt 0.421875 0.468750
vt 0.328125 0.468750
vt 0.328125 0.343750
vt 0.296875 0.343750
vt 0.296875 0.468750
vt 0.171875 0.468750
vt 0.171875 0.343750
vt 0.421875 0.343750
vt 0.421875 0.468750
vt 0.328125 0.468750
vt 0.328125 0.343750
vn 0.0000 -1.0000 0.0000
vn 0.0000 1.0000 -0.0000
vn -0.7071 0.0000 0.7071
vn 0.7071 0.0000 -0.7071
vn 0.0000 0.0000 -1.0000
vn -1.0000 0.0000 0.0000
vn 0.7071 0.0000 0.7071
vn 0.0000 0.0000 1.0000
vn -0.7071 0.0000 -0.7071
vn 1.0000 0.0000 0.0000
usemtl Material
s off
f 33/49/7 40/50/7 39/51/7 36/52/7 35/53/7 38/54/7 37/55/7 34/56/7
f 41/57/8 42/58/8 46/59/8 45/60/8 43/61/8 44/62/8 47/63/8 48/64/8
f 39/65/9 47/66/9 44/67/9 36/68/9
f 37/69/10 46/70/10 42/71/10 34/72/10
f 38/73/11 45/74/11 46/75/11 37/76/11
f 36/77/12 44/78/12 43/79/12 35/80/12
f 33/81/13 41/82/13 48/83/13 40/84/13
f 40/85/14 48/86/14 47/87/14 39/88/14
f 35/89/15 43/90/15 45/91/15 38/92/15
f 34/93/16 42/94/16 41/95/16 33/96/16
