# Blender v2.79 (sub 0) OBJ File: 'Pulser.blend'
# www.blender.org
mtllib pulser.mtl
#skllib pulser.skl
o Push_Model_Push_Geometry
v 0.500000 2.000000 -0.500000
v 0.500000 -2.000000 -0.500000
v -0.500000 -2.000000 -0.500000
v -0.500000 2.000001 -0.500000
v 0.500000 1.999999 0.500000
v 0.500000 -2.000001 0.500000
v -0.500000 -1.999999 0.500000
v -0.500000 2.000000 0.500000
v 0.500000 1.000000 -0.500000
v 0.250000 0.000000 -0.250000
v 0.500000 -1.000000 -0.500000
v -0.500000 -0.999999 -0.500000
v -0.250000 0.000000 -0.250000
v -0.500000 1.000001 -0.500000
v 0.500000 0.999999 0.500000
v 0.250000 -0.000001 0.250000
v 0.500000 -1.000001 0.500000
v -0.500000 -0.999999 0.500000
v -0.250000 0.000000 0.250000
v -0.500000 1.000000 0.500000
vt 0.250000 0.000000
vt 0.250000 0.250000
vt 0.000000 0.250000
vt 0.000000 0.000000
vt 0.250000 0.250000
vt 0.000000 0.250000
vt 0.000000 0.000000
vt 0.250000 0.000000
vt 0.250000 0.250000
vt 0.000000 0.250000
vt 0.000000 0.000000
vt 0.250000 0.000000
vt 0.250000 0.750000
vt 0.500000 0.750000
vt 0.500000 1.000000
vt 0.250000 1.000000
vt 0.250000 1.000000
vt 0.000000 1.000000
vt 0.000000 0.750000
vt 0.250000 0.750000
vt 0.250000 0.750000
vt 0.500000 0.750000
vt 0.500000 1.000000
vt 0.250000 1.000000
vt 0.250000 0.250000
vt 0.000000 0.250000
vt 0.000000 0.000000
vt 0.250000 0.000000
vt 0.250000 0.500000
vt 0.000000 0.500000
vt 0.000000 0.250000
vt 0.250000 0.250000
vt 0.250000 0.750000
vt 0.000000 0.750000
vt 0.000000 0.500000
vt 0.250000 0.500000
vt 0.250000 1.000000
vt 0.000000 1.000000
vt 0.000000 0.750000
vt 0.250000 0.750000
vt 0.000000 0.500000
vt 0.250000 0.500000
vt 0.250000 1.000000
vt 0.000000 1.000000
vt 0.000000 0.750000
vt 0.250000 0.750000
vt 0.000000 0.500000
vt 0.250000 0.500000
vt 0.250000 0.750000
vt 0.250000 1.000000
vt 0.000000 1.000000
vt 0.000000 0.750000
vt 0.250000 0.500000
vt 0.250000 0.750000
vt 0.000000 0.750000
vt 0.000000 0.500000
vt 0.250000 0.250000
vt 0.250000 0.500000
vt 0.000000 0.500000
vt 0.000000 0.250000
vn 0.0000 -0.0000 -1.0000
vn 0.0000 0.0000 1.0000
vn 1.0000 -0.0000 0.0000
vn -0.0000 -1.0000 -0.0000
vn -1.0000 0.0000 -0.0000
vn 0.0000 1.0000 0.0000
vn -0.9701 0.2425 -0.0000
vn -0.9701 -0.2425 -0.0000
vn 0.9701 -0.2425 -0.0000
vn 0.9701 0.2425 0.0000
vn -0.0000 -0.2425 0.9701
vn 0.0000 0.2425 0.9701
vn -0.0000 -0.2425 -0.9701
vn 0.0000 0.2425 -0.9701
usemtl Material
s off
f 11/1/1 2/2/1 3/3/1 12/4/1
f 17/5/2 18/6/2 7/7/2 6/8/2
f 11/9/3 17/10/3 6/11/3 2/12/3
f 2/13/4 6/14/4 7/15/4 3/16/4
f 14/17/5 20/18/5 8/19/5 4/20/5
f 5/21/6 1/22/6 4/23/6 8/24/6
f 3/25/5 7/26/5 18/27/5 12/28/5
f 12/29/7 18/30/7 19/31/7 13/32/7
f 13/33/8 19/34/8 20/35/8 14/36/8
f 1/37/3 5/38/3 15/39/3 9/40/3
f 9/40/9 15/39/9 16/41/9 10/42/9
f 10/42/10 16/41/10 17/10/10 11/9/10
f 5/43/2 8/44/2 20/45/2 15/46/2
f 15/46/11 20/45/11 19/47/11 16/48/11
f 16/48/12 19/47/12 18/6/12 17/5/12
f 1/49/1 9/50/1 14/51/1 4/52/1
f 9/53/13 10/54/13 13/55/13 14/56/13
f 10/57/14 11/58/14 12/59/14 13/60/14
