# Blender v2.79 (sub 0) OBJ File: 'static_textured.blend'
# www.blender.org
mtllib static_textured.mtl
#skllib static_textured.skl
o Cube
v 1.000000 -1.000000 -1.000000
v 1.000000 -1.000000 1.000000
v -1.000000 -1.000000 1.000000
v -1.000000 -1.000000 -1.000000
v -0.000000 1.000000 0.000000
vt 0.750000 0.000000
vt 1.000000 0.000000
vt 1.000000 0.250000
vt 0.750000 0.250000
vt 0.125000 0.000000
vt 0.250000 0.250000
vt 0.375000 0.000000
vt 0.000000 0.125000
vt 0.000000 0.375000
vt 0.500000 0.375000
vt 0.500000 0.125000
vt 0.375000 0.500000
vt 0.125000 0.500000
vn 0.0000 -1.0000 0.0000
vn 0.8944 0.4472 0.0000
vn -0.0000 0.4472 0.8944
vn -0.8944 0.4472 -0.0000
vn 0.0000 0.4472 -0.8944
usemtl librarianlib-models-test:textures/entity/static_texture.png
s off
f 1/1/1 2/2/1 3/3/1 4/4/1
f 1/5/2 5/6/2 2/7/2
f 2/8/3 5/6/3 3/9/3
f 3/10/4 5/6/4 4/11/4
f 5/6/5 1/12/5 4/13/5
