# Blender v2.79 (sub 0) OBJ File: 'steve.blend'
# www.blender.org
mtllib steve.mtl
#> a Armature
#> b 0 0.000000 0.750000 0.000000 -0.000000 0.010498 -0.000000 0.999945 0.125000 Root
#> b 1 0.000000 0.875000 0.000000 0.000000 0.000000 0.000000 1.000000 0.625000 Body
#> b 2 0.000000 1.500000 0.000000 0.000000 0.000000 0.000000 1.000000 0.500000 Head
#> b 2 0.000000 1.375000 0.375000 1.000000 0.000000 0.000000 0.000000 0.500000 Right_Arm
#> b 2 0.000000 1.375000 -0.375000 1.000000 0.000000 0.000000 0.000000 0.500000 Left_Arm
#> b 1 0.000000 0.750000 0.125000 1.000000 -0.000000 -0.000000 0.000000 0.750000 Right_Leg
#> b 1 0.000000 0.750000 -0.125000 1.000000 -0.000000 -0.000000 0.000000 0.750000 Left_Leg
o Cube
v -0.125000 0.750000 -0.000000
#> vw 1 7 1.000000
v 0.125000 0.000000 0.250000
#> vw 1 6 1.000000
v -0.125000 0.000000 0.250000
#> vw 1 6 1.000000
v 0.125000 0.750000 0.000000
#> vw 1 7 1.000000
v -0.125000 0.000000 0.000000
#> vw 1 7 1.000000
v 0.125000 0.750000 0.250000
#> vw 1 6 1.000000
v -0.125000 0.750000 0.250000
#> vw 1 6 1.000000
v 0.125000 0.000000 0.000000
#> vw 1 7 1.000000
v 0.125000 0.000000 0.000000
#> vw 1 6 1.000000
v -0.125000 0.000000 -0.000000
#> vw 1 6 1.000000
v 0.125000 0.750000 0.000000
#> vw 1 6 1.000000
v -0.125000 0.750000 -0.000000
#> vw 1 6 1.000000
v 0.125000 0.000000 -0.250000
#> vw 1 7 1.000000
v -0.125000 0.000000 -0.250000
#> vw 1 7 1.000000
v 0.125000 0.750000 -0.250000
#> vw 1 7 1.000000
v -0.125000 0.750000 -0.250000
#> vw 1 7 1.000000
v -0.125000 1.500000 0.250000
#> vw 1 2 1.000000
v 0.125000 1.500000 0.250000
#> vw 1 2 1.000000
v -0.125000 0.750000 0.250000
#> vw 1 2 1.000000
v 0.125000 0.750000 0.250000
#> vw 1 2 1.000000
v 0.125000 0.750000 -0.250000
#> vw 1 2 1.000000
v -0.125000 0.750000 -0.250000
#> vw 1 2 1.000000
v 0.125000 1.500000 -0.250000
#> vw 1 2 1.000000
v -0.125000 1.500000 -0.250000
#> vw 1 2 1.000000
v -0.125000 1.299057 -0.215367
#> vw 1 5 1.000000
v 0.125000 1.299057 -0.215367
#> vw 1 5 1.000000
v -0.125000 1.047988 -0.922095
#> vw 1 5 1.000000
v 0.125000 1.047988 -0.922095
#> vw 1 5 1.000000
v 0.125000 1.283564 -1.005785
#> vw 1 5 1.000000
v -0.125000 1.283564 -1.005785
#> vw 1 5 1.000000
v 0.125000 1.534633 -0.299057
#> vw 1 5 1.000000
v -0.125000 1.534633 -0.299057
#> vw 1 5 1.000000
v -0.125000 1.534633 0.299057
#> vw 1 4 1.000000
v 0.125000 1.534633 0.299057
#> vw 1 4 1.000000
v -0.125000 1.283564 1.005785
#> vw 1 4 1.000000
v 0.125000 1.283564 1.005785
#> vw 1 4 1.000000
v 0.125000 1.047988 0.922095
#> vw 1 4 1.000000
v -0.125000 1.047988 0.922095
#> vw 1 4 1.000000
v 0.125000 1.299057 0.215367
#> vw 1 4 1.000000
v -0.125000 1.299057 0.215367
#> vw 1 4 1.000000
v -0.250000 2.000000 0.250000
#> vw 1 3 1.000000
v 0.250000 2.000000 0.250000
#> vw 1 3 1.000000
v -0.250000 1.500000 0.250000
#> vw 1 3 1.000000
v 0.250000 1.500000 0.250000
#> vw 1 3 1.000000
v 0.250000 1.500000 -0.250000
#> vw 1 3 1.000000
v -0.250000 1.500000 -0.250000
#> vw 1 3 1.000000
v 0.250000 2.000000 -0.250000
#> vw 1 3 1.000000
v -0.250000 2.000000 -0.250000
#> vw 1 3 1.000000
vt 0.562500 0.281250
vt 0.562500 0.171875
vt 0.453125 0.171875
vt 0.453125 0.281250
vt 0.562500 0.281250
vt 0.453125 0.281250
vt 0.453125 0.171875
vt 0.562500 0.171875
vt 0.562500 0.609375
vt 0.453125 0.609375
vt 0.453125 0.281250
vt 0.562500 0.281250
vt 0.562500 0.609375
vt 0.453125 0.609375
vt 0.453125 0.281250
vt 0.562500 0.281250
vt 0.562500 0.171875
vt 0.453125 0.171875
vt 0.453125 0.281250
vt 0.562500 0.281250
vt 0.562500 0.609375
vt 0.453125 0.609375
vt 0.453125 0.281250
vt 0.562500 0.281250
vt 0.562500 0.609375
vt 0.671875 0.609375
vt 0.671875 0.281250
vt 0.562500 0.281250
vt 0.453125 0.281250
vt 0.453125 0.171875
vt 0.562500 0.171875
vt 0.562500 0.281250
vt 0.562500 0.609375
vt 0.671875 0.609375
vt 0.671875 0.281250
vt 0.562500 0.609375
vt 0.453125 0.609375
vt 0.453125 0.281250
vt 0.562500 0.281250
vt 0.562500 0.609375
vt 0.671875 0.609375
vt 0.671875 0.281250
vt 0.562500 0.281250
vt 0.562500 0.609375
vt 0.671875 0.609375
vt 0.671875 0.281250
vt 0.562500 0.687500
vt 0.437500 0.687500
vt 0.437500 0.750000
vt 0.562500 0.750000
vt 0.312500 0.500000
vt 0.312500 0.687500
vt 0.250000 0.687500
vt 0.250000 0.500000
vt 0.312500 0.687500
vt 0.312500 0.750000
vt 0.437500 0.750000
vt 0.437500 0.687500
vt 0.437500 0.500000
vt 0.437500 0.687500
vt 0.625000 0.500000
vt 0.625000 0.687500
vt 0.500000 0.687500
vt 0.500000 0.500000
vt 0.812500 0.750000
vt 0.812500 0.687500
vt 0.750000 0.687500
vt 0.750000 0.750000
vt 0.687500 0.500000
vt 0.687500 0.687500
vt 0.625000 0.687500
vt 0.625000 0.500000
vt 0.750000 0.750000
vt 0.687500 0.750000
vt 0.687500 0.687500
vt 0.750000 0.687500
vt 0.750000 0.500000
vt 0.750000 0.687500
vt 0.812500 0.500000
vt 0.812500 0.687500
vt 0.875000 0.687500
vt 0.875000 0.500000
vt 0.562500 0.281250
vt 0.562500 0.609375
vt 0.671875 0.609375
vt 0.671875 0.281250
vt 0.562500 0.281250
vt 0.562500 0.171875
vt 0.453125 0.171875
vt 0.453125 0.281250
vt 0.562500 0.281250
vt 0.562500 0.609375
vt 0.453125 0.609375
vt 0.453125 0.281250
vt 0.562500 0.281250
vt 0.453125 0.281250
vt 0.453125 0.171875
vt 0.562500 0.171875
vt 0.562500 0.609375
vt 0.453125 0.609375
vt 0.453125 0.281250
vt 0.562500 0.281250
vt 0.562500 0.609375
vt 0.671875 0.609375
vt 0.671875 0.281250
vt 0.562500 0.281250
vt 0.562500 0.609375
vt 0.671875 0.609375
vt 0.671875 0.281250
vt 0.375000 1.000000
vt 0.375000 0.875000
vt 0.250000 0.875000
vt 0.250000 1.000000
vt 0.125000 0.750000
vt 0.125000 0.875000
vt -0.000000 0.875000
vt -0.000000 0.750000
vt 0.250000 0.875000
vt 0.250000 1.000000
vt 0.125000 1.000000
vt 0.250000 0.750000
vt 0.500000 0.750000
vt 0.500000 0.875000
vt 0.375000 0.875000
vt 0.375000 0.750000
vn 0.0000 -1.0000 0.0000
vn 0.0000 1.0000 0.0000
vn 1.0000 0.0000 0.0000
vn -0.0000 -0.0000 1.0000
vn -1.0000 -0.0000 -0.0000
vn 0.0000 0.0000 -1.0000
vn 0.0000 -0.3348 -0.9423
vn -0.0000 -0.9423 0.3348
vn 0.0000 0.3348 0.9423
vn 0.0000 0.9423 -0.3348
vn -0.0000 -0.3348 0.9423
vn -0.0000 0.9423 0.3348
vn 0.0000 0.3348 -0.9423
vn 0.0000 -0.9423 -0.3348
usemtl librarianlib-models-test:textures/entity/steve
s off
f 9/1/1 2/2/1 3/3/1 10/4/1
f 11/5/2 12/6/2 7/7/2 6/8/2
f 9/1/3 11/9/3 6/10/3 2/11/3
f 2/12/4 6/13/4 7/14/4 3/15/4
f 13/16/1 8/17/1 5/18/1 14/19/1
f 8/20/4 4/21/4 1/22/4 5/23/4
f 3/24/5 7/25/5 12/26/5 10/27/5
f 15/28/2 16/29/2 1/30/2 4/31/2
f 10/32/6 12/33/6 11/34/6 9/35/6
f 13/16/3 15/36/3 4/37/3 8/38/3
f 5/39/5 1/40/5 16/41/5 14/42/5
f 14/43/6 16/44/6 15/45/6 13/46/6
f 21/47/1 20/48/1 19/49/1 22/50/1
f 20/51/4 18/52/4 17/53/4 19/54/4
f 23/55/2 24/56/2 17/57/2 18/58/2
f 21/59/3 23/60/3 18/52/3 20/51/3
f 19/61/5 17/62/5 24/63/5 22/64/5
f 22/64/6 24/63/6 23/60/6 21/59/6
f 29/65/7 28/66/7 27/67/7 30/68/7
f 28/69/8 26/70/8 25/71/8 27/72/8
f 31/73/9 32/74/9 25/75/9 26/76/9
f 29/77/3 31/78/3 26/70/3 28/69/3
f 27/79/5 25/80/5 32/81/5 30/82/5
f 30/83/10 32/84/10 31/85/10 29/86/10
f 37/87/11 36/88/11 35/89/11 38/90/11
f 36/91/12 34/92/12 33/93/12 35/94/12
f 39/95/13 40/96/13 33/97/13 34/98/13
f 37/87/3 39/99/3 34/100/3 36/101/3
f 35/102/5 33/103/5 40/104/5 38/105/5
f 38/106/14 40/107/14 39/108/14 37/109/14
f 45/110/1 44/111/1 43/112/1 46/113/1
f 44/114/4 42/115/4 41/116/4 43/117/4
f 47/118/2 48/119/2 41/120/2 42/115/2
f 45/121/3 47/118/3 42/115/3 44/114/3
f 43/122/5 41/123/5 48/124/5 46/125/5
f 46/125/6 48/124/6 47/118/6 45/121/6
